PathFileType	4	(X/Y/Z)	C:/Users/opensim2020/Desktop/walking_exp_matlab/subject02_walking06_straight_02.trc	
DataRate	CameraRate	NumFrames	NumMarkers	Units	OrigDataRate	OrigDataStartFrame	OrigNumFrames	
100.00	100.00	4	41	mm	100.00	1523	183	
Frame#	Time	LFHD			RFHD			LBHD			RBHD			C7			T10			CLAV			STRN			RBAK			LSHO			LUPA			LELB			LFRM			LWRA			LWRB			LFIN			RSHO			RUPA			RELB			RFRM			RWRA			RWRB			RFIN			LASI			RASI			LPSI			RPSI			LTHI			LKNE			LTIB			LANK			LHEE			LTOE			RTHI			RKNE			RTIB			RANK			RHEE			RTOE			*39			*40			
		X1	Y1	Z1	X2	Y2	Z2	X3	Y3	Z3	X4	Y4	Z4	X5	Y5	Z5	X6	Y6	Z6	X7	Y7	Z7	X8	Y8	Z8	X9	Y9	Z9	X10	Y10	Z10	X11	Y11	Z11	X12	Y12	Z12	X13	Y13	Z13	X14	Y14	Z14	X15	Y15	Z15	X16	Y16	Z16	X17	Y17	Z17	X18	Y18	Z18	X19	Y19	Z19	X20	Y20	Z20	X21	Y21	Z21	X22	Y22	Z22	X23	Y23	Z23	X24	Y24	Z24	X25	Y25	Z25	X26	Y26	Z26	X27	Y27	Z27	X28	Y28	Z28	X29	Y29	Z29	X30	Y30	Z30	X31	Y31	Z31	X32	Y32	Z32	X33	Y33	Z33	X34	Y34	Z34	X35	Y35	Z35	X36	Y36	Z36	X37	Y37	Z37	X38	Y38	Z38	X39	Y39	Z39	X40	Y40	Z40	X41	Y41	Z41	

92	0.910	-987.47992	-172.57097	1725.33691	-1129.98645	-167.74809	1704.06885	-971.61560	-49.30797	1640.62708	-1113.96729	-31.85797	1616.79419	-1036.73987	-1.24625	1501.72375	-1043.96985	50.33646	1225.82605	-1032.98511	-140.67036	1432.80579	-1041.09155	-193.11839	1261.32275	-1094.97449	60.12889	1326.59644	-859.67645	-86.99703	1478.50476	-770.25269	-110.97015	1284.07727	-747.79102	-150.33075	1146.83960	-752.66608	-230.43800	1037.94922	-803.02899	-338.41190	970.11279	-769.22028	-303.95752	941.80035	-770.20667	-358.16086	905.10443	-1227.69043	-66.56844	1462.00342	-1305.75647	-5.27468	1280.12415	-1326.02039	4.70944	1134.69690	-1347.55469	-2.48267	1014.63824	-1329.75989	-26.67035	880.38385	-1362.45984	18.91632	886.61542	-1363.75745	-4.73948	816.99133	-907.25269	-169.35585	952.68579	-1160.42273	-194.45959	958.99615	-1006.73822	29.99964	1008.15118	-1123.41907	25.56244	1014.57507	-861.45465	-30.87888	658.86377	-884.52765	43.01257	476.53656	-892.42346	192.38933	352.24426	-920.61438	309.40161	157.50319	-976.04297	343.47375	155.45128	-914.10339	208.11206	33.63962	-1240.76563	-187.75075	666.02051	-1193.37061	-251.17169	468.38162	-1201.61682	-246.86693	279.59442	-1164.66943	-250.70253	87.81676	-1107.95239	-218.07277	36.51550	-1174.90894	-404.52734	38.57087	-1073.92200	-61.68993	1780.27502	-3360.23047	2845.10278	1033.98926 
93	0.920	-989.91571	-183.56946	1726.64648	-1132.16272	-178.63628	1704.97571	-974.00269	-60.08449	1641.71594	-1115.76270	-42.71803	1618.29749	-1038.56799	-11.24484	1502.59131	-1046.17688	39.07771	1226.67651	-1034.94446	-151.29066	1434.38562	-1043.33228	-204.44150	1263.08862	-1096.76733	48.73970	1327.40503	-861.76453	-97.39352	1479.88403	-773.29327	-119.09940	1284.51331	-751.63116	-156.34608	1146.78503	-755.38562	-232.79065	1035.34802	-804.22455	-339.58945	964.12585	-770.84735	-303.67398	936.96777	-770.80585	-356.40787	898.54620	-1229.47986	-77.33421	1463.65784	-1308.66833	-18.21081	1281.40027	-1328.38318	-9.44125	1135.89294	-1350.15186	-16.85324	1016.02344	-1333.00452	-41.33326	881.73523	-1365.91711	4.11699	888.02472	-1366.99438	-19.31383	818.24463	-911.82843	-182.10156	953.97479	-1163.73523	-206.59981	961.64453	-1008.12775	17.91794	1009.05157	-1125.26489	14.43928	1015.95685	-863.31787	-46.35098	658.28101	-884.43091	23.25595	475.76086	-892.76050	175.05740	356.01334	-920.33325	297.26721	165.10646	-976.67126	330.29208	165.16946	-914.66461	206.55936	33.86657	-1242.55896	-201.16284	666.67633	-1194.41577	-259.90445	468.34518	-1201.58826	-249.88710	279.43048	-1164.02063	-251.39090	88.03126	-1107.70068	-218.23738	36.63087	-1174.09839	-405.63998	37.75604	-1076.12036	-72.73536	1781.75830	-3360.24854	2845.03906	1033.91101 
94	0.930	-991.98700	-194.30415	1727.91455	-1134.33167	-189.45239	1706.01245	-975.97205	-70.83844	1643.96118	-1117.86011	-53.14909	1619.82532	-1040.45276	-21.53639	1503.52087	-1048.59302	28.42406	1227.75159	-1036.75793	-161.86775	1436.11975	-1045.40076	-215.63385	1265.03784	-1099.29492	37.76802	1328.46167	-863.74725	-107.40385	1481.35681	-776.31067	-127.41010	1285.22058	-755.45795	-162.14378	1146.90002	-758.12506	-235.12096	1033.10229	-805.29559	-339.83282	958.05676	-772.20074	-302.85196	932.43683	-771.55316	-354.37384	892.21741	-1231.25244	-87.74242	1465.65613	-1311.05969	-31.08864	1282.85535	-1330.99792	-23.60036	1137.32336	-1353.42883	-31.61300	1017.62457	-1336.45618	-56.74282	883.53088	-1369.55872	-11.18123	889.73749	-1370.55579	-34.55515	819.79248	-916.10083	-194.00467	955.01050	-1166.93005	-218.27402	964.12476	-1009.63776	6.41196	1010.12494	-1127.12427	2.41290	1016.86469	-865.30798	-62.61198	657.18152	-884.54572	2.62312	474.50275	-893.33545	155.95805	358.72403	-920.04877	283.16089	172.41989	-976.75568	315.60037	174.65863	-915.41260	203.78200	34.33833	-1244.05371	-212.96378	667.22131	-1195.70618	-266.00754	467.80920	-1201.39355	-251.40575	279.17664	-1163.78894	-251.92647	88.04645	-1107.54395	-218.34328	36.65006	-1173.89270	-406.24274	37.51105	-1078.56421	-83.85597	1783.35852	-3360.37280	2845.03320	1033.80920 
95	0.940	-994.31976	-205.21370	1729.26563	-1136.41187	-200.15929	1707.16284	-977.95264	-80.70998	1645.83691	-1119.76855	-63.52153	1621.50928	-1042.35474	-31.66928	1504.78198	-1051.13879	17.37789	1228.89929	-1038.48865	-172.32877	1438.00488	-1047.25037	-226.60112	1267.01819	-1100.92493	26.66065	1329.39136	-865.63623	-117.20210	1482.93176	-779.22742	-135.95593	1285.86694	-759.12964	-167.62782	1147.24878	-760.86536	-237.42450	1031.28320	-806.52545	-339.71078	952.06311	-774.05463	-301.45358	927.76001	-772.34546	-351.30014	886.03961	-1232.88562	-98.04809	1467.71301	-1313.21069	-43.92395	1284.38770	-1333.22937	-37.84972	1138.97717	-1356.19080	-46.71439	1019.59766	-1339.77380	-71.95479	885.31281	-1373.29504	-27.01958	891.67700	-1374.20898	-50.32523	821.59821	-920.31158	-205.64159	956.30798	-1170.02905	-229.40919	966.36328	-1011.38141	-4.55472	1011.48456	-1128.89233	-9.06593	1017.89325	-867.08252	-79.25172	655.70905	-884.74121	-18.45152	473.15491	-893.63489	135.91176	360.97534	-919.86017	267.15540	179.30276	-977.04620	299.90509	183.90956	-916.38129	198.37819	36.40882	-1246.04651	-223.01611	668.35626	-1197.13745	-270.41678	467.17963	-1201.36658	-252.63953	279.08173	-1163.46570	-252.01204	88.17365	-1107.39722	-218.35196	36.74673	-1173.85486	-406.76822	37.28799	-1080.88257	-94.88374	1785.06580			 
